<svg xmlns="http://www.w3.org/2000/svg" version="1.1" xmlns:xlink="http://www.w3.org/1999/xlink" xmlns:svgjs="http://svgjs.dev/svgjs" viewBox="0 0 800 800"><defs><linearGradient x1="50%" y1="0%" x2="50%" y2="100%" id="ssscribble-grad"><stop stop-color="hsl(205, 69%, 60%)" stop-opacity="1" offset="0%"></stop><stop stop-color="hsl(205, 69%, 80%)" stop-opacity="1" offset="100%"></stop></linearGradient></defs><g fill="none" stroke-width="2" stroke="hsl(205, 69%, 50%)" stroke-linecap="round"><path d="M1028.08 603.1C1095.36 635.96 1089.34 673.36 1016.75 712.67 900.8 749.56 774.16 783.61 669.08 809.34 605.42 826.08 591.68 827.25 619.75 808.63 681.8 778.5 753.16 730.66 815.69 671.65 867.06 620.92 891.18 581.58 888.82 568.98 866.55 596 825.91 663 775.79 765.05 717.2 883.36 658.92 996.06 606.62 1074.37 552.95 1098.41 508.5 1058.11 475.64 960.92 442.77 838.88 423.06 726.6 414.76 653.5 405.09 635.91 403.59 671.18 405.23 742.49 398.4 835.04 384.93 918.32 356.55 973.98 308.26 998.17 236.97 982.39 142.53 934.26 36.93 860.94 -73.39 774.25 -169.65 686.14 -231.94 596.4 -247.66 516.55 -208.09 449.13 -127.1 387.17 -19.17 335.92 84.1 293.05 144 252.45 143.36 216.27 76.08 183.4 -40.35 150.54 -162.14 122.56 -250.81 101.19 -286.29 82.08 -255.43 73.55 -171.47 78.56 -55.02 89.03 65.78 114.76 167.04 153.85 252.52 211.08 216.29 254.57 154.9 184.59 112.46 94.72 84.28 -18.02 72.49 -134.66 67.02 -230.06 75.89 -284.04 95.61 -279.15 117.91 -218.74 146.5 -113.14 179.36 8.89 212.22 106.1 247.79 153.07 287.47 141.73 329.72 76.11 380.63 -17.87 443.05 -112.09 511.79 -190.07 594.08 -227.61 687.17 -220.42 778.37 -173.61 867.22 -95.32 940.15 -1.52 984.37 100.55 992.09 195.57 956.45 276.35 889.41 345.62 798.06 398.57 705.71 438.78 645.83 470 633.68 495.73 681.84 520.81 783.19 543.47 911.64 570.24 1028.08 603.1Q1028.08 603.1 1028.08 603.1" opacity="0.58"></path><path d="M994.08 625.76C1058.77 656.28 1060.36 684.56 1002.75 708.81 902.79 730.95 785.17 745.2 677.04 748.14 596.43 744.99 555.74 727.13 553.85 694.17 587.63 657.93 640.66 613.1 697.6 567.9 756.36 538.62 799.25 527.35 822.23 544.5 831.7 595.31 822.17 677.43 798.97 782.5 767.06 892.29 729.17 989 690.73 1050.05 650.13 1062.13 613.31 1018.67 582.8 926.92 552.29 813.67 529.52 706.7 512.57 630.58 493.47 600.13 475.85 616.3 454.88 668.49 425.2 747.19 384.48 827.87 327.98 893.48 257.97 939.84 171.28 954.04 72.53 938.08 -24.39 897.29 -113.6 837.05 -179.16 767.34 -209.04 689.25 -195.72 613.3 -137.47 544.63 -51.71 476.9 48.53 418.66 136.71 370.36 182.55 323.2 174.77 284.26 110.08 253.75 2.84 223.24 -111.12 202.58 -200.3 192.19 -247.76 182.95 -238.42 185.68 -178.92 200.52 -83.15 216.32 28.29 242.02 134.18 273.08 223.19 295.77 283.33 312.2 314.3 313 317.64 288.98 302.29 238.6 278.68 160.48 245.36 63.1 217.09 -44.93 199.09 -146 182.19 -220.56 178.12 -254.12 186.64 -235.45 196.49 -171.12 216.94 -70.35 247.45 42.89 277.97 134.66 317.1 184.32 364.79 184.03 413.82 134.76 473.4 55.43 543.17 -31.99 614.06 -114.7 692.58 -169.46 772.93 -188.51 843.57 -173.89 902.72 -126.45 939.38 -57.18 948.4 28 924.43 116.64 867.2 199.9 793.08 279.89 709 348.01 635.59 404.05 598.46 453.98 606.49 495.24 665.73 530.65 766.68 563.95 886.84 595.25 994.08 625.76Q994.08 625.76 994.08 625.76" opacity="0.08"></path><path d="M960.08 577.84C1021.81 606.01 1029.92 626.6 986.29 638.95 902.87 650.01 797.45 650.71 691.98 640.02 601.67 626.94 540.28 602.62 511.38 569.52 514.99 539.9 542.32 509.78 582.15 487.08 633.03 483.29 679.07 499.73 713.67 542.1 742.65 609.87 756.03 699.49 755.3 801.13 748.16 898.65 731.13 978.25 707.91 1022.9 682.64 1024.53 655 978.96 626.83 892.92 598.66 788.49 571.31 687.58 543.46 610.29 513.56 569.52 479.34 568.46 437.68 601.23 389.59 662.51 329.82 733.73 257.44 800.36 179.42 858.96 92.95 894.91 5.15 906.17 -71.58 896.98 -132.31 866.78 -165.25 822.48 -165.67 766.63 -129.55 706.3 -59.88 647.43 24.94 585.93 114.32 530.41 186.87 483.32 219.63 436.22 205.82 397.98 144.08 369.81 45.96 341.64 -59.63 324.87 -147.39 318.85 -203.66 312.82 -212.94 317.11 -177.16 329.79 -105.05 339.85 -10.15 353.8 90.24 366.24 186.56 367.13 265.31 356.9 321.85 329.18 356.52 281.01 371.11 211.67 372.3 123.74 360.29 27.79 345.55 -68.68 334.18 -150.61 319.77 -204.04 313.96 -219.02 318.91 -189.12 323.85 -122.71 340.06 -27.52 368.23 76.89 396.4 162.95 435.19 214.24 483.36 223.49 531.53 189.72 588.58 126.15 651.8 49.28 711.99 -31.71 773.11 -96.07 828.53 -134.52 870.76 -147.56 896.61 -130.62 898.85 -89.91 879.23 -30.29 833.87 40.25 766.89 113.28 695.81 189.8 626.17 260.5 574.7 322.4 559.57 381.89 584.88 432.44 652.02 474.5 750.65 515.27 861.96 549.68 960.08 577.84Q960.08 577.84 960.08 577.84" opacity="0.34"></path><path d="M926.08 474.32C984.49 500.14 997.99 515.93 967.14 522.01 900.21 527.77 809.32 523.53 711.44 510.25 618.6 497.84 544.05 478.99 493.91 457.56 469.85 443.69 469.29 435.13 485.32 438.15 517.02 459.04 552.44 498.8 584.6 559.25 618.1 636.13 641.67 725.82 653.76 818.55 662.06 932.21 628.08 962.3 592.52 858.92 566.7 763.35 535.77 669.17 499.45 592.48 461.79 544.03 416.47 528.17 362.6 542.42 305.77 584.45 239.68 641.14 166.38 701.05 94.44 761.95 21.95 809.65 -43.58 839.78 -93.45 856.05 -123.5 853.4 -126.33 835.49 -103.08 806.26 -51.68 768.24 22.22 726.6 101.18 680.47 177.37 635.82 234.33 595.93 255.22 555.22 236.49 521.12 178.08 495.3 88.99 469.48 -7.77 453.16 -92.34 445.18 -154.28 436.36 -178.74 434.05 -164.61 435.44 -117.02 432.33 -43.44 427.84 43.15 417.28 135.39 395.4 220.8 360.98 292.54 310.87 350.55 246.91 391.39 168.6 417.88 80.82 431.8 -5.97 438.07 -85.81 441.86 -146.78 440.5 -179.96 442.42 -178.81 450.77 -140.33 458.16 -73.61 474.12 15.32 499.94 110.88 525.76 190.97 560.22 242.83 601.52 260.05 641.86 240.48 686.91 192.98 733.02 129.35 773.97 55.54 810.22 -10.99 836.09 -60.99 849.4 -94.55 845.63 -103.71 821.46 -90.76 783.56 -59.93 728.76 -14.31 663.41 39.34 603.69 100.57 553.27 161.94 524.6 219.09 529.4 277.12 568.55 328.33 640.45 371.26 734.98 413.87 836.99 448.5 926.08 474.32Q926.08 474.32 926.08 474.32" opacity="0.14"></path><path d="M892.11 347.57C946.83 371.04 964.56 385.25 945.08 391.07 894.04 397.33 819.04 396.27 732.65 389.89 643.83 386.43 564.03 381.33 500.26 378.45 454.64 384.31 428.89 398.52 419.9 425.08 426.87 465.71 442.66 521.47 461.42 591.42 486.06 669.53 506.77 752.76 520.38 832.4 536.72 921.13 522.3 922.1 491.74 824.93 468.27 738.24 436.61 651.38 397.45 576.94 357.86 523.5 310.25 495.75 255.7 493.41 201.41 516.1 142.05 555.29 81.22 602.65 26.3 657.16 -23.19 706.55 -60.92 745.61 -82.69 777.8 -84.77 795.45 -63.59 799.44 -24.27 794.77 34.47 779.64 106.09 757.55 175.27 730.84 236.91 701.44 278.89 672.35 289.32 642.11 266.83 614.48 212.11 591.01 131.95 567.54 44.35 549.33 -35.45 535.31 -100.01 520.13 -135.87 506.83 -140.24 492.87 -116.02 474.28 -65.92 450.76 1.18 419.24 79.96 379.08 160.54 327.73 235.69 264.78 305.33 194.96 363.23 117.74 409.05 38.78 445.75 -33.01 473.14 -93.24 494.37 -133.14 510.45 -148.01 524.99 -133.61 540.82 -89.24 555.33 -23.85 573.72 58.24 597.2 144.93 620.67 218.78 648.1 270.18 677.86 293.67 706.3 286.65 734.45 254.7 759.06 205.83 778.51 143.4 789.78 81.22 789.25 27.55 779.61 -17.95 755.41 -45.88 716.54 -55.75 672.15 -51.55 619.4 -32.06 565.06 -1.74 522.39 37.31 493.33 81.07 486.31 125.2 507.87 172.25 557.09 216.01 630.7 254.02 719.56 292.46 811.92 324.09 892.08 347.56Q892.11 347.57 892.11 347.57" opacity="0.29"></path><path d="M857.78 237.09C908.61 258.22 929.58 273.3 920.08 283.27 883.94 294.06 825.37 301.41 753.25 307.38 673.84 316.87 596.18 328.48 526.99 345.11 468.07 369.3 423.57 402.34 393.19 446.01 375.92 498.7 369.12 561.68 368.86 632.48 376.11 704.83 384.33 776.49 390.14 840.35 399.66 904.4 386.09 881.04 358.83 790.82 337.71 713.01 308.73 633.99 273.11 563.31 237.82 507.53 196.71 471.06 151.92 454.95 109.51 459.79 66.5 480.65 26.69 512.02 -5.6 553.75 -29.13 596.28 -39.54 634.67 -36.85 672.08 -17.4 700.17 19.51 717.89 66.71 730.69 125.42 733.65 189.35 728.37 245.98 719.61 292.53 705.3 320.51 687.43 321.86 668.52 296.61 648.01 245.78 626.88 174.35 605.76 96.13 585.02 22.48 564.09 -41.76 542.12 -85.01 518 -103.79 490.16 -99.9 458.83 -72.68 421.09 -27.61 375.73 31.54 325.45 98.18 267.03 165.93 201.94 234.72 135.86 297.79 68.28 352.84 4.55 403.29 -48.81 445.45 -88.62 480.28 -108.95 511.44 -108.33 537.94 -83.89 561.43 -36.26 583.76 26.24 605.2 100.98 626.32 178.78 647.45 246.18 667.26 296.14 684.76 324.22 701.12 327.81 713.04 310.2 718.49 276.46 720.27 228.08 712.9 175.36 695.01 125.01 672.53 76.21 639.78 38.27 598.68 13.26 558.62 -2.71 517.03 -5.43 479.87 2.93 456.79 18.86 448.52 42.04 460.1 69.16 494.38 99.8 549.64 130.88 622.05 159.93 703.85 189.8 786.35 215.97 857.78 237.09Q857.78 237.09 857.78 237.09" opacity="0.22"></path><path d="M824.1 177.71C870.43 196.49 893.19 213.48 891.68 229.24 868.61 245.82 825.8 262.76 769.22 281.49 703.04 303.16 633.74 329.14 567 360.95 504.02 397.82 449.71 442.21 405.46 494.14 369.88 550.18 343.73 611.77 325.12 675.87 313.16 737.06 305.15 793.84 298.49 840.85 294.85 873.96 289.54 889.79 280.74 885.01 272.64 861.33 259.62 817.59 240.84 756.89 222.06 687.95 198.42 617.19 171.1 551.65 144.49 496.04 115.64 454.17 86.74 427.69 60.86 417.49 37.94 421.26 20.96 435.73 10.63 461.18 9.82 490.96 20.79 521.06 40.43 554.14 72.48 582.71 115.91 604.75 163.09 625.4 215.55 638.36 267.97 643.64 326.85 645.53 339.71 618.01 280.1 592.04 217.41 573.26 148.77 550.99 82.34 525.27 20.81 498.89 -26.2 467.9 -55.26 431.89 -67.77 394.06 -60.98 350.18 -37.76 300.59 -0.95 249.61 46.09 194.08 98.5 136.39 155.97 81.68 212.93 29.64 266.29 -15.36 319.1 -49.38 366.29 -69.98 407.1 -73.56 446.26 -60.83 479.76 -29.65 507.86 18.71 535.29 77 558.45 143.95 577.23 212.89 596.01 273.59 609.52 321.14 617.5 352.06 624.83 364.09 625.48 358.94 618.87 339.59 610.61 306.34 594.34 266.41 570.46 224.77 546.05 180.22 516.05 140.9 483.18 109.46 442.99 73.43 414.68 56.39 445.97 69.73 488.79 83.54 546.49 100.77 615.26 119.59 688.93 139.25 761.38 158.93 824.07 177.7Q824.1 177.71 824.1 177.71" opacity="0.79"></path><path d="M790.07 187.73C857.35 220.59 848.9 262.12 779.26 315.28 670.53 375.57 552.01 457.19 450.58 557.7 365.74 659.56 307.26 760.25 267.57 832 237.89 856.75 210.25 820.09 177.39 722.88 144.53 600.84 109.55 487.52 82.29 411.11 65.03 380.71 72.23 389.72 113.99 418.59 172.36 466.53 256.02 505.07 340.67 522.06 386.22 537.87 381.35 529.9 314.07 497.03 197.63 464.17 82.02 409.54 4.14 336.78 -30.58 262.84 -8.63 173.02 50.64 82 135.45 10.06 224.97 -33.79 300.88 -27.48 377.09 24.83 434.13 124.84 466.99 246.88 502.64 369.08 448.08 312.82 387.22 221.12 371.02 163.68 383.92 133.34 442.74 130 544.7 133.78 673.63 154.87 790.07 187.73Q790.07 187.73 790.07 187.73" opacity="0.88"></path><path d="M756.11 264.09C817.82 292.25 823.42 336.97 780.7 396.32 703.18 458.12 607.89 536.3 516.3 622.93 427.61 702.17 355.95 772.01 302.94 812.86 255.7 817.02 219 774.97 190.83 688.93 162.67 584.5 145.7 482.9 144.13 404.65 148.33 356.31 176.02 337.99 227.8 339.83 282.48 360.86 347.89 382.4 404.76 392.62 426.83 405.41 409.82 399.84 348.11 371.68 250 343.51 149.83 295.41 73.07 233.81 21.41 174.78 11.38 109.28 34.49 51.34 80.61 12.58 139.9 1.02 196.52 28.7 257.19 86.3 305.39 176.47 333.55 280.89 364.46 393.69 339.87 396.74 323 334.43 336.79 284.71 376.69 250.49 448.99 237.5 546.38 226.97 657.97 235.91 756.08 264.08Q756.11 264.09 756.11 264.09" opacity="0.56"></path><path d="M722.11 382.94C776.83 406.41 792.12 446.75 771.79 499.51 724.37 551.6 657.74 613.31 586.93 675.71 511.29 727.94 443.65 767.72 390.29 782.82 338.64 772.19 299.97 728.77 276.5 654.93 253.03 568.24 246.98 480.95 257.94 407.06 270.64 350.19 301.64 313.44 346.52 293.47 407.43 288.53 449.23 283.15 382.11 255.2 301.95 231.72 218.93 195.97 149.43 154 76.69 97.2 82.44 48.18 128.72 93.77 166.02 150.45 199.62 228.21 223.09 314.89 246.57 388.75 257.69 441.69 261.07 469.54 269.11 471.64 278.43 456.76 297.55 435.29 332.79 403.66 387.83 378.57 462.69 367.17 549.39 355.08 641.92 359.46 722.08 382.93Q722.11 382.94 722.11 382.94" opacity="0.56"></path><path d="M687.96 507.07C734.34 525.84 754.93 556.2 751.36 593.77 729.5 629.49 691.36 668.48 646.01 703.8 593.7 730.41 542.84 745.25 500.17 741.78 456.82 722.49 423.8 681.56 405.02 620.88 386.24 551.93 383.48 480.9 394.3 416.65 404.42 360.34 425.97 315.67 453.67 282.99 474.42 259.23 492.63 242.2 500.73 227.93 490.54 216.61 462.34 202.71 415.96 183.93 353.24 165.15 288.25 143.28 230.64 122.05 176.6 103.78 138.83 91.51 118.7 90.65 107.16 98.73 109.58 123.48 121.32 166.03 136.35 216.51 154.97 279.93 173.75 348.88 192.53 409.56 209.69 458.1 227.2 491.15 248 508.38 274.89 513.47 311.04 511.47 355.78 500.76 413.46 491.07 481.27 487.9 552.64 482.87 625.24 488.29 687.96 507.07Q687.96 507.07 687.96 507.07" opacity="0.97"></path><path d="M654.11 597.81C715.82 625.97 716.33 668.96 678.56 699.09 619.33 707.91 559.64 672.97 531.48 586.93 503.31 482.49 512 379.56 534.31 306.36 535.16 248.72 511.82 208.46 450.11 180.29 351.99 152.12 262.71 141.39 212.91 162.11 175.06 198.39 174.34 278.49 202.51 382.93 230.68 468.97 282.39 526.74 357.16 554.84 443.87 561.63 555.99 569.64 654.11 597.81Q654.11 597.81 654.11 597.81" opacity="0.61"></path><path d="M620.08 626.65C691.42 664.21 650.28 660.13 612.73 552.92 575.17 413.47 555.42 282.84 484.08 245.28 349.1 207.73 261.9 277.47 299.46 416.92 337.01 524.13 485.1 589.1 620.08 626.65Q620.08 626.65 620.08 626.65" opacity="0.43"></path></g></svg>