<svg xmlns="http://www.w3.org/2000/svg" version="1.1" xmlns:xlink="http://www.w3.org/1999/xlink" xmlns:svgjs="http://svgjs.dev/svgjs" viewBox="0 0 2400 800"><defs><linearGradient x1="50%" y1="0%" x2="50%" y2="100%" id="sssurf-grad"><stop stop-color="hsl(205, 69%, 60%)" stop-opacity="1" offset="0%"></stop><stop stop-color="hsl(205, 69%, 80%)" stop-opacity="1" offset="100%"></stop></linearGradient></defs><g fill="url(#sssurf-grad)" transform="matrix(1,0,0,1,10.8282470703125,227.05047607421875)"><path d="M-10,10C33.75,15.208333333333334,114.58333333333334,44.166666666666664,200,35C285.41666666666663,25.833333333333336,316.66666666666663,-31.291666666666668,400,-34C483.33333333333337,-36.708333333333336,516.6666666666666,15.958333333333334,600,22C683.3333333333334,28.041666666666664,716.6666666666666,-9.375,800,-5C883.3333333333334,-0.625,916.6666666666666,42.583333333333336,1000,43C1083.3333333333333,43.416666666666664,1116.6666666666667,-1.75,1200,-3C1283.3333333333333,-4.25,1316.6666666666667,38.875,1400,37C1483.3333333333333,35.125,1516.6666666666667,-14.083333333333334,1600,-12C1683.3333333333333,-9.916666666666666,1716.6666666666667,42.833333333333336,1800,47C1883.3333333333333,51.166666666666664,1916.6666666666667,6.958333333333333,2000,8C2083.3333333333335,9.041666666666666,2118.75,51.583333333333336,2200,52C2281.25,52.416666666666664,2296.25,-62.5,2390,10C2483.75,82.5,3252.0833333333335,214.58333333333331,2650,400C2047.9166666666665,585.4166666666667,156.25,795.8333333333334,-500,900" transform="matrix(1,0,0,1,0,35)" opacity="0.05"></path><path d="M-10,10C33.75,15.208333333333334,114.58333333333334,44.166666666666664,200,35C285.41666666666663,25.833333333333336,316.66666666666663,-31.291666666666668,400,-34C483.33333333333337,-36.708333333333336,516.6666666666666,15.958333333333334,600,22C683.3333333333334,28.041666666666664,716.6666666666666,-9.375,800,-5C883.3333333333334,-0.625,916.6666666666666,42.583333333333336,1000,43C1083.3333333333333,43.416666666666664,1116.6666666666667,-1.75,1200,-3C1283.3333333333333,-4.25,1316.6666666666667,38.875,1400,37C1483.3333333333333,35.125,1516.6666666666667,-14.083333333333334,1600,-12C1683.3333333333333,-9.916666666666666,1716.6666666666667,42.833333333333336,1800,47C1883.3333333333333,51.166666666666664,1916.6666666666667,6.958333333333333,2000,8C2083.3333333333335,9.041666666666666,2118.75,51.583333333333336,2200,52C2281.25,52.416666666666664,2296.25,-62.5,2390,10C2483.75,82.5,3252.0833333333335,214.58333333333331,2650,400C2047.9166666666665,585.4166666666667,156.25,795.8333333333334,-500,900" transform="matrix(1,0,0,1,0,70)" opacity="0.21"></path><path d="M-10,10C33.75,15.208333333333334,114.58333333333334,44.166666666666664,200,35C285.41666666666663,25.833333333333336,316.66666666666663,-31.291666666666668,400,-34C483.33333333333337,-36.708333333333336,516.6666666666666,15.958333333333334,600,22C683.3333333333334,28.041666666666664,716.6666666666666,-9.375,800,-5C883.3333333333334,-0.625,916.6666666666666,42.583333333333336,1000,43C1083.3333333333333,43.416666666666664,1116.6666666666667,-1.75,1200,-3C1283.3333333333333,-4.25,1316.6666666666667,38.875,1400,37C1483.3333333333333,35.125,1516.6666666666667,-14.083333333333334,1600,-12C1683.3333333333333,-9.916666666666666,1716.6666666666667,42.833333333333336,1800,47C1883.3333333333333,51.166666666666664,1916.6666666666667,6.958333333333333,2000,8C2083.3333333333335,9.041666666666666,2118.75,51.583333333333336,2200,52C2281.25,52.416666666666664,2296.25,-62.5,2390,10C2483.75,82.5,3252.0833333333335,214.58333333333331,2650,400C2047.9166666666665,585.4166666666667,156.25,795.8333333333334,-500,900" transform="matrix(1,0,0,1,0,105)" opacity="0.37"></path><path d="M-10,10C33.75,15.208333333333334,114.58333333333334,44.166666666666664,200,35C285.41666666666663,25.833333333333336,316.66666666666663,-31.291666666666668,400,-34C483.33333333333337,-36.708333333333336,516.6666666666666,15.958333333333334,600,22C683.3333333333334,28.041666666666664,716.6666666666666,-9.375,800,-5C883.3333333333334,-0.625,916.6666666666666,42.583333333333336,1000,43C1083.3333333333333,43.416666666666664,1116.6666666666667,-1.75,1200,-3C1283.3333333333333,-4.25,1316.6666666666667,38.875,1400,37C1483.3333333333333,35.125,1516.6666666666667,-14.083333333333334,1600,-12C1683.3333333333333,-9.916666666666666,1716.6666666666667,42.833333333333336,1800,47C1883.3333333333333,51.166666666666664,1916.6666666666667,6.958333333333333,2000,8C2083.3333333333335,9.041666666666666,2118.75,51.583333333333336,2200,52C2281.25,52.416666666666664,2296.25,-62.5,2390,10C2483.75,82.5,3252.0833333333335,214.58333333333331,2650,400C2047.9166666666665,585.4166666666667,156.25,795.8333333333334,-500,900" transform="matrix(1,0,0,1,0,140)" opacity="0.53"></path><path d="M-10,10C33.75,15.208333333333334,114.58333333333334,44.166666666666664,200,35C285.41666666666663,25.833333333333336,316.66666666666663,-31.291666666666668,400,-34C483.33333333333337,-36.708333333333336,516.6666666666666,15.958333333333334,600,22C683.3333333333334,28.041666666666664,716.6666666666666,-9.375,800,-5C883.3333333333334,-0.625,916.6666666666666,42.583333333333336,1000,43C1083.3333333333333,43.416666666666664,1116.6666666666667,-1.75,1200,-3C1283.3333333333333,-4.25,1316.6666666666667,38.875,1400,37C1483.3333333333333,35.125,1516.6666666666667,-14.083333333333334,1600,-12C1683.3333333333333,-9.916666666666666,1716.6666666666667,42.833333333333336,1800,47C1883.3333333333333,51.166666666666664,1916.6666666666667,6.958333333333333,2000,8C2083.3333333333335,9.041666666666666,2118.75,51.583333333333336,2200,52C2281.25,52.416666666666664,2296.25,-62.5,2390,10C2483.75,82.5,3252.0833333333335,214.58333333333331,2650,400C2047.9166666666665,585.4166666666667,156.25,795.8333333333334,-500,900" transform="matrix(1,0,0,1,0,175)" opacity="0.68"></path><path d="M-10,10C33.75,15.208333333333334,114.58333333333334,44.166666666666664,200,35C285.41666666666663,25.833333333333336,316.66666666666663,-31.291666666666668,400,-34C483.33333333333337,-36.708333333333336,516.6666666666666,15.958333333333334,600,22C683.3333333333334,28.041666666666664,716.6666666666666,-9.375,800,-5C883.3333333333334,-0.625,916.6666666666666,42.583333333333336,1000,43C1083.3333333333333,43.416666666666664,1116.6666666666667,-1.75,1200,-3C1283.3333333333333,-4.25,1316.6666666666667,38.875,1400,37C1483.3333333333333,35.125,1516.6666666666667,-14.083333333333334,1600,-12C1683.3333333333333,-9.916666666666666,1716.6666666666667,42.833333333333336,1800,47C1883.3333333333333,51.166666666666664,1916.6666666666667,6.958333333333333,2000,8C2083.3333333333335,9.041666666666666,2118.75,51.583333333333336,2200,52C2281.25,52.416666666666664,2296.25,-62.5,2390,10C2483.75,82.5,3252.0833333333335,214.58333333333331,2650,400C2047.9166666666665,585.4166666666667,156.25,795.8333333333334,-500,900" transform="matrix(1,0,0,1,0,210)" opacity="0.84"></path><path d="M-10,10C33.75,15.208333333333334,114.58333333333334,44.166666666666664,200,35C285.41666666666663,25.833333333333336,316.66666666666663,-31.291666666666668,400,-34C483.33333333333337,-36.708333333333336,516.6666666666666,15.958333333333334,600,22C683.3333333333334,28.041666666666664,716.6666666666666,-9.375,800,-5C883.3333333333334,-0.625,916.6666666666666,42.583333333333336,1000,43C1083.3333333333333,43.416666666666664,1116.6666666666667,-1.75,1200,-3C1283.3333333333333,-4.25,1316.6666666666667,38.875,1400,37C1483.3333333333333,35.125,1516.6666666666667,-14.083333333333334,1600,-12C1683.3333333333333,-9.916666666666666,1716.6666666666667,42.833333333333336,1800,47C1883.3333333333333,51.166666666666664,1916.6666666666667,6.958333333333333,2000,8C2083.3333333333335,9.041666666666666,2118.75,51.583333333333336,2200,52C2281.25,52.416666666666664,2296.25,-62.5,2390,10C2483.75,82.5,3252.0833333333335,214.58333333333331,2650,400C2047.9166666666665,585.4166666666667,156.25,795.8333333333334,-500,900" transform="matrix(1,0,0,1,0,245)" opacity="1"></path></g></svg>