<svg xmlns="http://www.w3.org/2000/svg" version="1.1" xmlns:xlink="http://www.w3.org/1999/xlink" xmlns:svgjs="http://svgjs.dev/svgjs" viewBox="0 0 800 800"><defs><linearGradient x1="50%" y1="0%" x2="50%" y2="100%" id="uundulate-grad"><stop stop-color="hsl(335, 77%, 60%)" stop-opacity="1" offset="45%"></stop><stop stop-color="hsl(335, 77%, 80%)" stop-opacity="1" offset="100%"></stop></linearGradient></defs><g stroke-width="2" stroke="url(#uundulate-grad)" fill="none"><path d="M712.7763031534606 110.13606337195029C770.9414927114033 232.15926452649546 719.5295248963671 608.9122562835935 630.7970554923012 710.889703642166C542.064586088235 812.8671510007384 393.8848685706623 641.1079889164489 286.86045001394314 599.627810693099C179.83603145722418 558.1476324697492 163.22789396244252 568.4243711934291 117.07984642004891 511.78484817008746C70.93179887765524 455.1453251467458 55.47163410326857 400.146630128202 65.34982181045365 327.7581001810597C75.22800951763872 255.36957023391744 104.85882995542835 206.52402152395393 164.4951474145373 164.3199044238056C224.13146487364634 122.11578732365729 237.3789048352346 136.46663831948558 351.604145614177 125.17833810034892C465.82938639311953 113.89003788121221 654.6111135955181 -11.887137782595005 712.7763031534606 110.13606337195029C770.9414927114033 232.15926452649546 719.5295248963671 608.9122562835935 630.7970554923012 710.889703642166 "></path><path d="M701.1920272771173 120.87174890461529C757.2029505551359 238.37557223862177 707.6951296962125 601.1747494861976 622.2490480478525 699.3752543500082C536.8029663994927 797.5757592138189 394.11138656775574 632.1780475770954 291.0508353649893 592.2341722509067C187.9902841622228 552.290296924718 171.99726287095166 562.186415695669 127.55840227457253 507.64465278430293C83.11954167819346 453.1028898729369 68.23197559915445 400.1411835587837 77.74430450236974 330.4337102763503C87.25663340558498 260.72623699391704 115.79001604938242 213.6897826806188 173.21758101000586 173.04878102862415C230.6451459706293 132.4077793766295 243.4019400077143 146.22711737261227 353.39661631336264 135.35690234677696C463.391292619011 124.4866873209416 645.1811039990984 3.3679255706088043 701.1920272771173 120.87174890461529C757.2029505551359 238.37557223862177 707.6951296962125 601.1747494861976 622.2490480478525 699.3752543500082 "></path><path d="M689.6077208831956 131.6074954724366C743.4643778812906 244.59194098590444 695.8607039784795 593.4373037239582 613.7010100858257 687.8608660930067C531.541316193172 782.2844284620555 394.33787404727116 623.2481672728983 295.2411901984573 584.8405948438706C196.14450634964334 546.433022414843 180.76660126188256 555.9485212330651 138.03692761151808 503.5045184336748C95.3072539611536 451.06051563428434 80.99228657746221 400.1357980245216 90.13875667670766 333.1093814067972C99.2852267759531 266.0829647890729 126.7211716257583 220.85560487243998 181.93998408789622 181.77771866859894C237.15879655003414 142.69983246475795 249.42494466261587 155.98765746089526 355.18905649497015 145.53552762836125C460.9531683273242 135.0833977958273 635.7510638851006 18.62304995896875 689.6077208831956 131.6074954724366C743.4643778812906 244.59194098590444 695.8607039784795 593.4373037239582 613.7010100858257 687.8608660930067 "></path><path d="M678.0233839716959 142.34315048752353C729.7257746898672 250.80821818045263 684.0262477431684 585.6997664089841 605.1529416062208 676.3463862832708C526.2796354692732 766.9930061575574 394.56433100920844 614.3181954159667 299.4315145143471 577.4469258841002C204.29869801948576 540.5756563522336 189.53590913523539 549.7105352177269 148.51542243088545 499.3642925303121C107.49493572653557 449.0180498428974 93.75256703819184 400.1303209375251 102.5331783334675 335.7849609845098C111.31378962874311 271.43960103149436 137.65229668455612 228.0213355115268 190.66235664820852 190.5065647558394C243.67241661186085 152.99179400015203 255.44791879993943 165.74810599644383 356.9814661589994 155.71406135721122C458.5150135180594 145.68001671797856 626.3209932535246 33.87808279459438 678.0233839716959 142.34315048752353C729.7257746898672 250.80821818045263 684.0262477431684 585.6997664089841 605.1529416062208 676.3463862832708 "></path><path d="M666.4390775777744 153.07886653776666C715.9872020160218 257.02455641015706 672.1918220254355 577.9622901291664 596.6049036441941 664.831967508691C521.0179852629526 751.7016448882159 394.79081848872386 605.3882845941914 303.62186934781505 570.053317959486C212.45292020690624 534.7183513247805 198.30524752616634 543.4726102375448 158.993947767831 495.22412766210573C119.68264800949567 446.97564508666653 106.5128780164996 400.1249048856848 114.92763050780542 338.4606015973784C123.34238299911124 276.7962983090721 148.583452260932 235.18712718576978 199.38475972609893 199.235471878236C250.1860671912658 163.2838165707023 261.470923454841 175.50861556714864 358.7739063406068 165.89265612121739C456.0768892263727 156.27669667528608 616.8909531395269 49.133176665376254 666.4390775777744 153.07886653776666C715.9872020160218 257.02455641015706 672.1918220254355 577.9622901291664 596.6049036441941 664.831967508691 "></path><path d="M654.8547711838528 163.81455207043172C702.2486293421764 263.24086412228337 660.3573963077025 570.2247833317706 588.0568656821673 653.3175182165335C515.756335056632 736.4102531012961 395.01730596823927 596.4583432548379 307.812224181283 562.6596795172936C220.60714239432673 528.8610157797493 207.0745859170973 537.2346547397847 169.47247310477655 491.0839322763212C131.87036029245576 444.93320981285774 119.27318899480736 400.11945831626645 127.32208268214339 341.136211692669C135.37097636947937 282.1529650690717 159.51460783730795 242.35288834243465 208.1071628039893 207.96434848305455C256.6997177706707 173.5758086236745 267.4939281097427 185.26909462027533 360.5663465222143 176.07122036764542C453.6387649346859 166.87334611501552 607.4609130255292 64.38824001858 654.8547711838528 163.81455207043172C702.2486293421764 263.24086412228337 660.3573963077025 570.2247833317706 588.0568656821673 653.3175182165335 "></path><path d="M643.2704647899311 174.55026812067484C688.510056668331 269.4572023519878 648.5229705899696 562.4873070519529 579.5088277201405 641.8030994419538C510.4946848503114 721.1188918319547 395.2437934477547 587.5284324330627 312.00257901475095 555.2660715926795C228.76136458174727 523.0037107522962 215.84392430802825 530.9967297596028 179.95099844172205 486.9437674081149C144.0580725754159 442.89080505662696 132.0334999731151 400.1140422644262 139.7165348564813 343.81185230553774C147.3995697398475 287.5096623466494 170.44576341368384 249.5186800166777 216.82956588187972 216.69325560545127C263.2133683500756 183.86783119422478 273.51693276464425 195.02960419098014 362.3587867038217 186.2498151316516C451.20064064299913 177.47002607232304 598.0308729115313 79.64333388936188 643.2704647899311 174.55026812067484C688.510056668331 269.4572023519878 648.5229705899696 562.4873070519529 579.5088277201405 641.8030994419538 "></path><path d="M631.6861583960097 185.2859536533399C674.7714839944856 275.67351006411417 636.6885448722368 554.7498002545572 570.9607897581137 630.288650149796C505.2330346439908 705.8275000450349 395.4702809272701 578.5984910937093 316.1929338482189 547.8724331504872C236.91558676916782 517.146375207265 224.6132626989592 524.7587742618427 190.4295237786676 482.8035720223304C156.245784858376 440.84836978281805 144.79381095142293 400.1085956950078 152.11098703081927 346.48746240082846C159.42816311021562 292.86632910664895 181.37691899005978 256.68444117334263 225.55196895977008 225.4221322102698C269.72701892948044 194.15982324719698 279.5399374195458 204.79008324410682 364.1512268854292 196.42837937807963C448.76251635131257 188.06667551205243 588.6008327975335 94.89839724256564 631.6861583960097 185.2859536533399C674.7714839944856 275.67351006411417 636.6885448722368 554.7498002545572 570.9607897581137 630.288650149796 "></path><path d="M620.101852002088 196.0216391860049C661.0329113206403 281.8898177762405 624.8541191545039 547.0122934571613 562.4127517960869 618.7742008576382C499.97138443767017 690.5361082581152 395.6967684067855 569.6685497543558 320.38328868168685 540.4787947082948C245.0698089565883 511.2890396622338 233.38260108989016 518.5208187640826 200.9080491156131 478.6633766365459C168.4334971413361 438.80593450900915 157.55412192973068 400.1031491255894 164.5054392051572 349.16307249611896C171.45675648058375 298.2229958666485 192.30807456643572 263.8502023300075 234.2743720376605 234.15100881508835C276.24066950888533 204.4518153001692 285.56294207444745 214.5505622972335 365.9436670670366 206.60694362450766C446.3243920596258 198.66332495178187 579.1707926835359 110.15346059576939 620.101852002088 196.0216391860049C661.0329113206403 281.8898177762405 624.8541191545039 547.0122934571613 562.4127517960869 618.7742008576382 "></path><path d="M608.5175456081665 206.75737049503715C647.2943386467949 288.106171264734 613.0196934367709 539.2748324361326 553.8647138340602 607.2597973418476C494.70973423134944 675.2447622475627 395.9232558863009 560.7386541913695 324.5736435151548 533.0852020424697C253.2240311440088 505.43174989356976 242.15193948082106 512.2829090426897 211.38657445255865 474.52322702712854C180.62120942429618 436.76354501156754 170.31443290803844 400.09774833253834 176.89989137949516 351.83872836777687C183.48534985095188 303.5797084030153 203.2392301428116 271.0160092630396 242.99677511555092 242.87993119627407C282.7543200882902 214.74385312950852 291.5859467293491 224.3110871267274 367.7361072486441 216.78555364730295C443.886267767939 209.26002016787845 569.740752569538 125.40856972534033 608.5175456081665 206.75737049503715C647.2943386467949 288.106171264734 613.0196934367709 539.2748324361326 553.8647138340602 607.2597973418476 "></path><path d="M596.9332392142448 217.49308654528033C633.5557659729495 294.3225094944384 601.1852677190379 531.5373561563149 545.3166758720333 595.745378567268C489.44808402502883 659.953400978221 396.1497433658162 551.8087433695943 328.7639983486228 525.6915941178554C261.37825333142933 499.57444486611666 250.921277871752 506.04498406250764 221.86509978950414 470.38306215892226C192.80892170725633 434.72114025533676 183.0747438863462 400.0923322806981 189.29434355383307 354.5143689806455C195.51394322132 308.936405680593 214.17038571918755 278.1818009372826 251.71917819344134 251.60883831867073C289.26797066769507 225.03587570005885 297.6089513842507 234.0715966974322 369.5285474302515 226.9641484113091C441.4481434762523 219.85670012518597 560.3107124555403 140.6636635961222 596.9332392142448 217.49308654528033C633.5557659729495 294.3225094944384 601.1852677190379 531.5373561563149 545.3166758720333 595.745378567268 "></path><path d="M585.3489328203233 228.22875681915627C619.8171932991041 300.5388019477757 589.350842001305 523.79983410013 536.7686379100066 584.2309140163211C484.1864338187082 644.6619939325124 396.37623084533163 542.8787867714518 332.95435318209076 518.2979404168741C269.5324755188499 493.7170940622964 259.69061626268297 499.80701330595855 232.3436251264497 466.2428515143487C204.99663399021642 432.6786897227389 195.83505486465396 400.08687045249064 201.68879572817104 357.18996381714715C207.54253659168813 314.29305718180353 225.10154129556344 285.3475468351585 260.4415812713317 260.3376996647002C295.7816212471 235.32785249424194 303.6319560391523 243.83206049176982 371.320987611859 237.1426973989481C439.01001918456564 230.45333430612635 550.8806723415425 155.9187116905369 585.3489328203233 228.22875681915627C619.8171932991041 300.5388019477757 589.350842001305 523.79983410013 536.7686379100066 584.2309140163211 "></path><path d="M573.7646111676127 238.96447286939946C606.0786053664697 306.75514017748014 577.516401024783 516.0623578203124 528.2205846891908 572.7164952417415C478.92476835359844 629.3706326631707 396.602703066058 533.9488759496764 337.1446927567697 510.90433249226C277.6866824474813 487.8597890348433 268.45993939482486 493.56908832577653 242.82213520460618 462.1026866461423C217.18433101438745 430.63628496650813 208.59535058417265 400.0814544006504 214.0832326437199 359.86560443001576C219.5711147032672 319.64975445938126 236.03268161315032 292.5133385094015 269.16396909043306 269.0666067870969C302.2952565677158 245.61987506479227 309.65494543526484 253.59257006247464 373.1134125346773 247.32129216295425C436.5718796340899 241.05001426343387 541.4506169687556 171.17380556131877 573.7646111676127 238.96447286939946C606.0786053664697 306.75514017748014 577.516401024783 516.0623578203124 528.2205846891908 572.7164952417415 "></path><path d="M562.1803200324802 249.70018891964264C592.3400479514135 312.9714784071846 565.6819905658392 508.32488154049463 519.672561985953 561.202076467162C473.6631334060669 614.0792713938292 396.82920580436246 525.0189651279011 341.3350628490267 503.51072456764564C285.84091989369085 482.0024840073902 277.2292930445449 487.33116334559463 253.30067580034074 457.962521777936C229.3720585561366 428.59388021027735 221.35567682126947 400.07603834881024 226.47770007684693 362.5412450428846C231.5997233324244 325.006451736959 246.96385244831527 299.67913018364453 277.88638742711254 277.79551390949354C308.80892240590975 255.9118976353426 315.6779653489555 263.35307963317945 374.9058679750739 257.4998869269604C434.1337706011923 251.64669422074138 532.020592113547 186.42889943210065 562.1803200324802 249.70018891964264C592.3400479514135 312.9714784071846 565.6819905658392 508.32488154049463 519.672561985953 561.202076467162 "></path><path d="M550.5959983797695 260.43587445230764C578.6014600187789 319.1877861193109 553.8475495893172 500.58737474309874 511.1245087651372 549.6876271750041C468.4014679409572 598.7878796069094 397.0556780250888 516.0890237885477 345.5254024237056 496.1170861254534C293.99512682232233 476.145148462359 285.99861617668677 481.0932078478345 263.77918587849723 453.82232639215147C241.5597555803077 426.55144493646844 234.11597254078816 400.07059177939186 238.87213699239578 365.21685513817516C243.62830144400345 330.3631184969585 257.89499276590215 306.8448913403094 286.60877524621384 286.5243905143121C315.3225577265256 266.20388968831475 321.7009547450681 273.11355868630613 376.69829289789226 267.67845117338845C431.69563105071643 262.2433436604708 522.5905367407602 201.6839627853044 550.5959983797695 260.43587445230764C578.6014600187789 319.1877861193109 553.8475495893172 500.58737474309874 511.1245087651372 549.6876271750041 "></path><path d="M539.011691985848 271.17157524376177C564.8628873449336 325.4041090902263 542.0131238715842 492.849883204492 502.5764708031104 538.1731931416355C463.1398177346366 583.4965030787787 397.2821655046042 507.1590977079834 349.71575725717355 488.7234629420501C302.1493490097429 470.2878281761168 294.7679545676177 474.8552676088634 274.2577112154427 449.682146265156C253.7474678632678 424.5090249214487 246.87628351909592 400.06516046876254 251.26658916673375 367.8924804922549C255.65689481437158 335.7198005157472 268.82614834227803 314.0106677557634 295.33117832410426 295.2532823779197C321.8362083059304 276.495897000076 327.7239593999697 282.8740529982219 378.4907330794997 277.8570306786056C429.25750675902964 272.8400083589893 513.1604966267623 216.93904139729722 539.011691985848 271.17157524376177C564.8628873449336 325.4041090902263 542.0131238715842 492.849883204492 502.5764708031104 538.1731931416355 "></path><path d="M527.4273855919264 281.90726077642677C551.1243146710882 331.6204168023526 530.1786981538512 485.11237640709624 494.0284328410837 526.6587438494777C457.878167528316 568.205111291859 397.50865298411964 498.2291563686299 353.9061120906415 481.32982449985775C310.30357119716336 464.4304926310856 303.5372929585486 468.6173121111033 284.7362365523883 445.5419508793716C265.9351801462279 422.4665896476398 259.6365944974037 400.05971389934416 263.66104134107167 370.56809058754544C267.6854881847397 341.0764672757468 279.757303918654 321.17642891242826 304.0535814019947 303.9821589827382C328.3498588853354 286.78788905304816 333.74696405487134 292.63453205134863 380.28317326110715 288.03559492503365C426.81938246734296 283.43665779871867 503.7304565127646 232.19410475050097 527.4273855919264 281.90726077642677C551.1243146710882 331.6204168023526 530.1786981538512 485.11237640709624 494.0284328410837 526.6587438494777 "></path><path d="M515.8430944567939 292.64297682666995C537.3857572560319 337.8367550320571 518.3442876949075 477.3749001272786 485.48041013784587 515.144325074898C452.61653258078445 552.9137500225174 397.7351557224241 489.29924554685465 358.0964821828985 473.93621657524363C318.45780864337297 458.5731876036325 312.30664660826864 462.3793871309214 295.21477714812283 441.4017860111652C278.12290768797703 420.424184891409 272.3969207345005 400.0542978475039 276.0555087741987 373.24373120041423C279.71409681389684 346.43316455332445 290.6884747538189 328.3422205866713 312.7759997386741 312.7110661051349C334.8635247235293 297.0799116235985 339.769983968562 302.39504162205344 382.07562870150366 298.2141896890398C424.38127343444535 294.03333775602624 494.3004316575558 247.4491986212828 515.8430944567939 292.64297682666995C537.3857572560319 337.8367550320571 518.3442876949075 477.3749001272786 485.48041013784587 515.144325074898 "></path><path d="M504.2587880628723 303.37869287691314C523.6471845821866 344.05309326176155 506.5098619771745 469.6374238474608 476.9323721758192 503.62990630031834C447.35488237446384 537.6223887531759 397.9616432019395 480.3693347250793 362.28683701636646 466.5426086506294C326.61203083079346 452.7158825761794 321.0759849991996 456.14146215073936 305.6933024850684 437.2616211429588C290.3106199709372 418.3817801351783 285.15723171280825 400.0488817956637 288.4499609485366 375.91937181328296C291.742690184265 351.78986183090217 301.61963033019487 335.5080122609143 321.4984028165645 321.43997322753154C341.3771753029342 307.3719341941488 345.7929886234636 312.15555119275825 383.8680688831111 308.392784453046C421.94314914275856 304.63001771333376 484.87039154355807 262.7042924920647 504.2587880628723 303.37869287691314C523.6471845821866 344.05309326176155 506.5098619771745 469.6374238474608 476.9323721758192 503.62990630031834 "></path><path d="M492.6744664101616 314.11437840957814C509.908596649552 350.26940097388785 494.6754210006525 461.899917050065 468.3843189550033 492.11545700816055C442.09321690935417 522.3309969662562 398.1881154226658 471.4393933857259 366.47717659104535 459.14897020843705C334.76623775942494 446.8585470311482 329.8453081313415 449.90350665297933 316.1718125632249 433.12142575717434C302.4983169951082 416.33934486136945 297.91752743232695 400.0434352262453 300.8443978640855 378.5949819085736C303.77126829584404 357.14652859090177 312.55077064778175 342.67377341757924 330.2207906356659 330.16884983235013C347.89081062355 317.66392624712097 351.81597801957616 321.91603024588494 385.6604938059295 318.571348699474C419.5050095922828 315.22666715306315 475.4403361707713 277.9593558452684 492.6744664101616 314.11437840957814C509.908596649552 350.26940097388785 494.6754210006525 461.899917050065 468.3843189550033 492.11545700816055 "></path><path d="M481.09016001624013 324.8500944598213C496.1700239757067 356.4857392035923 482.8409952829196 454.1624407702473 459.8362809929765 480.601038233581C436.83156670303345 507.0396356969146 398.41460290218123 462.50948256395054 370.66753142451336 451.7553622838228C342.9204599468454 441.0012420036951 338.61464652227244 443.6655816727973 326.65033790017037 428.981260888968C314.6860292780683 414.2969401051387 310.6778384106347 400.0380191744051 313.23885003842344 381.2706225214423C315.79986166621217 362.5032258684795 323.48192622415763 349.83956509182224 338.94319371355624 338.8977569547468C354.4044612029549 327.9559488176713 357.83898267447773 331.67653981658975 387.45293398753694 328.74994346348024C417.06688530059614 325.8233471103707 466.01029605677354 293.2144497160503 481.09016001624013 324.8500944598213C496.1700239757067 356.4857392035923 482.8409952829196 454.1624407702473 459.8362809929765 480.601038233581 "></path><path d="M469.50585362231845 335.5857799924863C482.43145130186133 362.7020469157186 471.0065695651866 446.4249339728515 451.28824303094973 469.0865889414232C431.56991649671284 491.7482439099948 398.64109038169664 453.57954122459716 374.8578862579813 444.3617238416305C351.07468213426597 435.1439064586639 347.3839849132034 437.4276261750372 337.1288632371159 424.8410655031835C326.8737415610284 412.2545048313298 323.4381493889425 400.03257260498674 325.6333022127614 383.9462326167329C327.8284550365803 367.8598926284791 334.4130818005336 357.00532624848717 347.66559679144666 347.62663355956533C360.91811178235974 338.24794087064345 363.86198732937936 341.43701886971644 389.2453741691444 338.9285077099083C414.62876100890935 336.4199965501001 456.5802559427757 308.46951306925405 469.50585362231845 335.5857799924863C482.43145130186133 362.7020469157186 471.0065695651866 446.4249339728515 451.28824303094973 469.0865889414232 "></path><path d="M457.9215319696079 346.3214960427295C468.69286336922687 368.9183851454231 459.1721285886647 438.6874576930338 442.74018981013387 457.57217016684353C426.30825103160316 476.45688264065325 398.867562602423 444.64963040282186 379.0482258326602 436.96811591701635C359.2288890628974 429.2866014312108 356.1533080453453 431.1897011948552 347.60737331527235 420.70090063497713C339.0614385851995 410.21210007509904 336.1984451084612 400.0271565531465 338.02773912831026 386.62187322960165C339.85703314815936 373.21658990605675 345.3442221181204 364.17111792273016 356.387984610548 356.355540681962C367.4317471029756 348.5399634411938 369.8849767254919 351.19752844042125 391.03779909196277 349.10710247391444C412.1906214584336 347.0166765074076 447.15020056998884 323.7246069400359 457.9215319696079 346.3214960427295C468.69286336922687 368.9183851454231 459.1721285886647 438.6874576930338 442.74018981013387 457.57217016684353 "></path><path d="M446.33722557568626 357.0571968341836C454.9542906953815 375.13470811633846 447.3377028709317 430.94996615442705 434.19215184810713 446.0577361334748C421.04660082528255 461.1655061125226 399.0940500819384 435.7197043222575 383.23858066612814 429.57449273361306C367.38311125031794 423.4292811449686 364.92264643627624 424.9517609558842 358.0858986522179 416.5607205079817C351.2491508681596 408.16968006007926 348.958756086769 400.02172524251716 350.42219130264823 389.2974985836813C351.8856265185275 378.5732719248454 356.27537769449634 371.33689433818415 365.1103876884384 365.0844325455696C373.9453976823805 358.83197075295504 375.90798138039355 360.958022752337 392.8302392735702 359.28568197913154C409.7524971667469 357.61334120592613 437.7201604559911 338.97968555202874 446.33722557568626 357.0571968341836C454.9542906953815 375.13470811633846 447.3377028709317 430.94996615442705 434.19215184810713 446.0577361334748 "></path><path d="M434.7529191817647 367.79291288442676C441.21571802153613 381.3510463460429 435.5032771531988 423.21248987460933 425.64411388608033 434.5433173588952C415.7849506189619 445.874144843181 399.32053756145376 426.7897935004822 387.4289354995961 422.1808848089989C375.5373334377384 417.57197611751553 373.69198482720714 418.7138359757022 368.5644239891634 412.42055563977533C363.43686315111967 406.1272753038485 361.71906706507673 400.01630919067696 362.81664347698614 391.97313919655005C363.9142198888956 383.92996920242314 367.2065332708722 378.50268601242715 373.8327907663288 373.81333966796626C380.45904826178537 369.1239933235053 381.9309860352952 370.7185323230418 394.62267945517766 369.4642767431377C407.31437287506014 368.21002116323365 428.2901203419933 354.2347794228106 434.7529191817647 367.79291288442676C441.21571802153613 381.3510463460429 435.5032771531988 423.21248987460933 425.64411388608033 434.5433173588952 "></path><path d="M423.16861278784313 378.52858315830275C427.47714534769074 387.5673387993802 423.66885143546585 415.4749678184245 417.0960759240536 423.02885280794834C410.5233004126413 430.58273779747225 399.5470250409692 417.8598369023397 391.6192903330641 414.78723110801747C383.69155562515897 411.71462531369525 382.4613232181381 412.47586521915304 379.04294932610895 408.2803449952018C375.62457543407976 404.08482477125057 374.4793780433845 400.0108473624695 375.2110956513241 394.6487340330516C375.94281325926374 389.2866207036336 378.13768884724817 385.668431910303 382.5551938442192 382.54220101399574C386.9726988411902 379.41597011768846 387.95399069019675 380.47899611737944 396.4151196367851 379.64282573077674C404.87624858337347 378.806655344174 418.8600802279955 369.4898275172253 423.16861278784313 378.52858315830275C427.47714534769074 387.5673387993802 423.66885143546585 415.4749678184245 417.0960759240536 423.02885280794834 "></path><path d="M411.58430639392157 389.2642992085459C413.7385726738454 393.78367702908463 411.8344257177329 407.7374915386068 408.5480379620268 411.51443403336873C405.2616502063206 415.2913765281306 399.7735125204846 408.92992608056437 395.80964516653205 407.3936231834033C391.84577781257946 405.85732028624216 391.23066160906905 406.237940238971 389.52147466305445 404.1401801269954C387.8122877170399 402.0424200150198 387.23968902169224 400.0054313106293 387.60554782566203 397.32437464592033C387.9714066296319 394.64331798121134 389.06884442362406 392.834223584546 391.2775969221096 391.2711081363924C393.4863494205951 389.70799268823873 393.9769953450984 390.23950568808425 398.20755981839255 389.8214204947829C402.43812429168673 389.40333530148155 409.4300401139978 384.7449213880072 411.58430639392157 389.2642992085459C413.7385726738454 393.78367702908463 411.8344257177329 407.7374915386068 408.5480379620268 411.51443403336873 "></path></g></svg>