<svg xmlns="http://www.w3.org/2000/svg" version="1.1" xmlns:xlink="http://www.w3.org/1999/xlink" xmlns:svgjs="http://svgjs.dev/svgjs" viewBox="0 0 800 800"><defs><linearGradient x1="50%" y1="0%" x2="50%" y2="100%" id="ssscribble-grad"><stop stop-color="hsl(205, 69%, 60%)" stop-opacity="1" offset="0%"></stop><stop stop-color="hsl(205, 69%, 80%)" stop-opacity="1" offset="100%"></stop></linearGradient></defs><g fill="none" stroke-width="1.5" stroke="url(#ssscribble-grad)" stroke-linecap="round" stroke-dasharray="6"><path d="M916.6 489.44C983.76 516.36 1007.09 529.09 984.91 527.77 924.48 525.67 837 509.11 739.79 480.76 645.7 456.51 568.76 430.01 515.95 412.53 489.41 418.85 486.85 452.7 501.37 521.94 531.9 619.22 566.29 737.33 597.36 853.62 629.63 937.26 651.73 968.15 662.21 930.61 669.5 839.09 666.03 717.33 653.3 610.66 639.17 567.63 618.2 606.3 591.28 718.42 564.36 860.31 532.75 968.3 496.1 1002.04 458.05 954.08 412.55 842.42 358.6 709.24 301.46 591.84 235.01 523.26 161.25 511.63 88.68 553.09 15.64 624.49 -50.17 700.29 -114.66 793.47 -79.66 799.85 21.09 735.89 98.56 678.54 170.72 621.55 220.76 571.72 232.55 520.4 203.76 480.04 136.6 453.11 42.65 426.18 -53.17 413.97 -130.73 414.51 -180.27 413.56 -189.11 421.57 -159.02 432.26 -97.05 432.34 -13.47 422.46 77.64 392.27 168.62 337.73 247.57 255.38 309.33 148.77 354.08 37.68 381.18 -65.64 395.08 -135.14 396.6 -151.56 393.12 -107.14 390.02 -9.49 382.09 152.13 402.7 137.07 437.69 -61.52 464.62 -173.66 501.05 -206.9 545.46 -153.51 589.33 -36.45 639.78 100.63 693.63 211.89 743.39 269.18 791.22 262.44 831.2 206.84 858.79 118.59 870.34 32.4 860.88 -29.59 834.41 -63.54 787.38 -58.75 724.43 -23.57 661.35 35.39 601.91 106.23 559.68 177.14 549.32 252.15 573.49 317.69 633.41 370.57 721.36 422.67 822.65 462.51 916.6 489.44Q916.6 489.44 916.6 489.44" opacity="0.80"></path><path d="M886.6 332.25C949.91 357.1 976.13 368.65 963.28 368.74 916.52 370.25 843.11 363.73 756.37 354.64 666.26 354.66 585.1 362.71 520.59 387.67 475.31 433.71 450.85 504.4 443.73 598.66 453.12 701.62 471.08 805.3 491.37 888.53 517.1 931.03 537.97 921.81 550.93 857.27 563.63 758.87 566.88 648.41 560.4 562.86 553.33 537.66 537.37 582.65 512.52 688.42 487.67 819.7 455.09 925.15 415.3 970.74 374.9 947 326.44 861.43 270.67 743.81 214.64 622.92 152.85 530.06 88.81 480.49 30.22 477.63 -23.42 512.57 -65.38 567.72 -90.83 636.4 -95.84 696.04 -76.44 737.27 -37.81 765.07 21.06 770.69 92.95 759.13 161.48 736.8 220.74 706.16 257.91 673.7 261.17 638.5 229.91 607.01 166.6 582.15 80.4 557.3 -8.42 540.26 -83.66 528.59 -137.81 514.18 -158.69 499.61 -145.82 478.87 -103.77 447.37 -38.33 400.83 39.73 334.73 124.47 255.2 205.27 159.88 275.77 58.63 336.07 -29.1 382.03 -93.51 415.2 -116.54 437.64 -92.86 452.2 -22.3 463.04 80.36 468.88 179.76 476.09 251.21 487.62 265.38 498.05 210.21 515.08 99.74 539.94 -31.52 564.79 -137.31 596.29 -177.3 632.73 -142.52 668.07 -47.39 706.07 77.21 743.3 193.83 775.53 276.6 801.9 308.12 817.77 291.5 822.9 234.15 812.62 159.93 784.9 89.55 746.96 27.86 695.63 -7.14 636.77 -14.88 584.58 -1.53 541.43 31.33 517.6 74.38 522.94 126.54 557.96 178.27 621.7 223.63 706.54 270.41 800.4 307.4 886.6 332.25Q886.6 332.25 886.6 332.25" opacity="0.82"></path><path d="M856.63 209.75C915.85 232.53 944.09 248.85 939.36 260.8 905.34 275.12 846.24 289.74 771.92 309.69 689.82 338.67 610.02 380.46 539.99 439.06 482.11 509.75 440.37 595.66 413.97 690.01 401.35 813.29 423.32 874.61 437.27 773.82 447.2 677.61 450.43 583.27 445.47 519.2 440.63 509.88 427.14 559.46 404.36 658.43 381.58 778.94 350.58 880.34 312.45 934.72 274.45 932.38 229.78 873.47 180.37 777.41 132.85 664.67 83.5 561.44 36.29 485.34 -3.44 443.23 -34.8 437.05 -52.71 457.89 -56.17 501.74 -41.44 551.99 -7.28 597.63 39.01 642.17 98.39 672.07 163.79 686.54 244.47 692.23 272.27 650.84 196.63 617.95 118.13 595.17 36.62 570.89 -35.14 543.66 -91.73 514.01 -121.94 477.05 -123.96 429.63 -100.75 375.69 -54.56 308.27 6.94 228.61 79.3 147.87 154.11 64.91 224.96 -8.79 291.97 -59.49 349.26 -80.32 396.09 -61.94 435.39 -9.56 466.15 73.23 490.78 169.27 510.88 248.64 528.74 294.58 546.74 288.13 563.52 224.96 582.81 118.94 605.59 -1.56 628.37 -100.53 653.56 -145.49 679.75 -127.38 704.72 -54.52 728.3 52.78 747.68 165.68 765.91 293.39 741.09 303.23 691.65 223.32 650.66 158.83 602.86 105.62 554.22 70.04 503.55 44.42 524.47 85.73 611.44 127.79 692 158.81 778.13 186.96 856.63 209.75Q856.63 209.75 856.63 209.75" opacity="0.92"></path><path d="M826.6 184.62C881.51 205.33 910.95 228.13 913.11 254.11 890.64 282.04 845.53 316.68 784.78 360.46 713.75 409.57 640.12 470.46 570.52 542.36 506.81 616 454.04 693.63 413.24 766.52 383.28 822.65 363.69 856.89 351.68 859.56 347.12 830.69 345.55 769.53 343.88 684.73 344.13 560.81 322.35 510.47 294.99 628.42 274.28 738.04 247.13 833.99 214.83 894.1 183.12 909.63 147.52 876.18 110.34 805.08 76.11 709.73 43.57 609.61 16.21 521.25 -8.76 431.04 16.74 412.94 72.99 453.28 121.02 490.1 176.08 522.05 231.93 544.75 294.16 571.72 298.33 568.58 226.6 542.14 155.73 521.44 81.77 492.45 14.54 455.26 -42.41 416.98 -79.14 368.86 -93.23 311.23 -86.72 252.64 -59.27 186.58 -15.9 117.84 40.03 56.97 102.71 4.44 166.47 -30.27 231.39 -41.29 291.39 -24 344.28 23.7 393.3 90.49 434.87 172.03 469.65 252.21 501.24 308.13 528.33 329.81 552.23 306.3 575.12 238.22 596.7 138.08 617.41 28.47 638.12 -63.27 656.99 -111.53 673.15 -107.86 688.31 -56.57 698.9 30.3 703.2 131.85 704.31 231.85 696.85 311.58 679.74 362.03 658.78 380.92 628.52 371.24 590.74 342.26 554.12 296.52 516 248.62 481.62 206.9 459.82 166.92 450.94 140.13 459.62 126.91 488.88 119.03 537.4 122.06 602.35 133.19 677.58 146.27 755.73 163.91 826.6 184.62Q826.6 184.62 826.6 184.62" opacity="0.80"></path><path d="M796.63 269.76C846.97 288.4 876.78 314.9 884.47 348.99 872.12 383.89 840.1 427.59 793.22 479.63 735.21 532.38 671.5 591.98 607.51 654.73 544.53 711.68 487.61 763.51 438.8 802.62 396.72 823.07 363.22 820.93 337.2 792.26 317.15 743.14 301.82 674.15 289.06 594.98 274.3 496.83 239.05 487.56 213.15 598.43 194.51 697.06 172.63 786.3 148.6 849.14 125.33 878.56 101.41 867.79 78.87 822.41 59.32 750.42 43.96 664.56 35.28 578.22 32.57 497.43 39.31 432.76 56.97 387.19 81.34 359.57 116.16 348.88 159.74 349.8 204.31 361.94 251.31 377.29 295.66 390.73 339.58 412.37 323.76 416.26 256.63 393.59 193.32 374.95 127.09 346.64 65.27 309.91 9.84 273.45 -30.67 229.46 -53.72 180.56 -60.99 134.82 -50.39 88.77 -24.89 47.9 12.86 18.24 59.58 2.16 110.76 5.35 166.3 26.48 221.01 69.04 272.13 130.42 322.61 197.35 367.77 266.5 406.94 324.83 444.56 356.56 476.93 356.73 504.25 320.13 530.97 250.12 553.71 157.1 572.35 58.48 597.81 -50.52 621.68 -19.71 617.13 97.4 610.26 190.23 595.8 275.94 574.05 344.48 551.66 392.55 523.7 416.8 492.6 420.78 465.85 406.11 441.23 381.04 422.88 352.81 416.79 318.79 422.91 289.89 443.83 269.44 480.55 249.7 531.68 239.91 594.3 240.16 663.31 241.23 733.32 251.12 796.63 269.76Q796.63 269.76 796.63 269.76" opacity="0.19"></path><path d="M766.62 421.62C843.79 454.75 850.52 521.73 795.84 609.98 699.2 688.08 586.29 758.95 484.49 783.28 394.5 749.08 328.6 645.85 282.36 509.54 245.34 425.76 213.29 440.16 180.15 568.48 147.02 741.02 115.93 841.85 95.52 825.72 84.34 713.29 98.52 561.42 145.08 433.7 203.45 343.25 281.21 302.44 353.56 286.76 383.96 289.08 363.79 281.47 286.62 248.34 169.23 215.2 60.79 159.67 -5.95 99.93 -28.32 58.18 3.25 47.27 68.09 94.29 155.4 178.58 244.63 295.3 319.28 383.44 393.37 375.28 449.06 261.02 482.19 88.48 515.34 -39.83 522.79 -40.8 506.13 67.26 488.91 227.85 451.39 366.23 407.51 443.87 386.1 462.97 389.66 443.81 436.31 423.14 527.34 392.32 649.2 388.47 766.59 421.61Q766.62 421.62 766.62 421.62" opacity="0.12"></path><path d="M736.6 562.32C807.35 591.31 824.08 638.48 791.42 689.25 722.2 726.16 631.61 739.91 541.49 708.03 452.1 642.49 378.22 538.31 322.73 433.13 272.57 386.3 233.7 420.43 204.7 538.42 167.52 742.82 178.81 693.03 244.5 515.85 296.63 403.03 356.46 323.25 404.43 273.19 415.83 237.07 387.35 209.65 316.6 180.66 214.87 151.67 117.77 123.84 49.28 109.71 9.83 109.52 12.76 144.05 46.88 218.86 102.77 300.56 168.56 384.75 228.81 425.57 292.06 386.67 341.58 270.78 370.57 118.47 399.57 0.45 405.29 -21.94 392.29 46.12 382.29 172.55 361.75 307.5 343.86 411.05 347.74 480.93 375.57 512.44 436.28 525.78 526.02 525.25 634.87 533.32 736.6 562.32Q736.6 562.32 736.6 562.32" opacity="0.11"></path><path d="M706.63 619.99C769.93 644.84 793.36 667.1 778.98 677.77 735.56 678.22 670.41 651.25 599.35 591.04 522.63 520.91 453.44 436.88 398.49 369.64 345.3 355.3 305.16 402.66 280.31 508.43 255.46 639.71 248.24 740.59 258.36 781.76 270.24 764.72 300.64 696.03 344.79 606.51 383.28 504.66 422.06 416.11 447.27 350.9 443.43 291.55 409.93 250.17 346.63 225.32 260.43 200.46 176.29 194.49 110.88 210.77 62.27 232.91 44.42 282.67 52.72 351.95 78.26 408.89 117.29 451.22 158.23 450.05 203.38 390.68 241.73 279.75 266.58 148.48 291.43 42.68 300.44 5.38 298.36 37.92 300.49 123.38 300.24 233.76 307.28 336.48 331.56 429.26 375.76 495.02 442.59 537.64 526.22 570.04 620.43 595.13 706.63 619.99Q706.63 619.99 706.63 619.99" opacity="0.74"></path><path d="M676.6 565.01C731.51 585.73 758.39 589.73 757.94 575.38 736.63 557.03 696.46 516.13 647.73 457.33 591.26 403.82 536.34 351.84 490.26 321.93 443.64 332.8 407.99 386.69 387.28 478.42 366.57 588.04 362.75 679.82 373.48 733.54 383.67 750.43 406.27 725.99 435.59 676.44 457.19 608.38 475.38 538.59 481.52 480.74 466.78 422.13 431.51 380.09 376.6 359.38 305.73 338.67 235.72 341.25 177.44 363.97 127.16 385.93 97.46 423.39 87.67 464.3 89.11 486.71 104.17 489.19 125.95 457.12 151.41 388.22 176.84 288.04 197.55 178.42 218.26 86.69 232.29 41.19 242.72 45.51 256.84 90.6 274.1 164.54 299.8 245.2 336.74 331.14 388.41 404.36 453.86 458.6 527.33 508.84 605.73 544.3 676.6 565.01Q676.6 565.01 676.6 565.01" opacity="0.91"></path><path d="M646.63 425.58C723.8 458.71 724.67 417.04 677.33 336.38 603.31 296.41 530.65 320.14 497.52 448.43 464.38 621 477.04 712.3 507.62 701.77 511.54 631.8 483.8 547.39 406.63 514.25 289.23 481.11 192.76 505.52 149.91 532.06 129.95 499.16 148.31 381 181.45 208.43 214.59 80.14 256.22 83.28 319.61 166.68 405.89 290.76 529.21 392.43 646.6 425.57Q646.63 425.58 646.63 425.58" opacity="0.24"></path><path d="M616.63 273.04C679.93 297.89 697.74 280.49 681.49 254.3 648.17 260.71 607.12 312.67 582.27 418.43 557.42 549.71 553.47 641.32 554.21 670.3 537.88 667.1 499.93 635.47 436.63 610.62 350.43 585.76 275.69 572.39 234 543.02 200.33 481.47 197.69 369.71 222.55 238.43 247.4 132.67 295.04 100.85 361.28 127.02 435.54 185.79 530.43 248.18 616.63 273.04Q616.63 273.04 616.63 273.04" opacity="0.63"></path><path d="M586.63 185.49C663.79 218.62 652.47 260.15 619.34 388.43 586.2 561 543.79 632.29 466.63 599.16 349.23 566.02 276.92 441 310.06 268.43 343.19 140.15 469.23 152.35 586.63 185.49Q586.63 185.49 586.63 185.49" opacity="0.94"></path></g></svg>